<svg id="Layer_1" data-name="Layer 1" xmlns="http://www.w3.org/2000/svg" xmlns:xlink="http://www.w3.org/1999/xlink" viewBox="0 0 75 75"><defs><style>.cls-1,.cls-2{fill:none;}.cls-2{stroke:#004e70;stroke-linecap:round;stroke-linejoin:round;stroke-width:3px;}.cls-3{clip-path:url(#clip-path);}.cls-4{clip-path:url(#clip-path-2);}.cls-5{fill:#fff;}.cls-6{clip-path:url(#clip-path-3);}.cls-7{clip-path:url(#clip-path-4);}.cls-8{clip-path:url(#clip-path-5);}</style><clipPath id="clip-path"><rect class="cls-1" x="39.84" y="53.5" width="29.42" height="17.5"/></clipPath><clipPath id="clip-path-2"><line class="cls-1" x1="54.55" y1="71" x2="54.55" y2="49.75"/></clipPath><clipPath id="clip-path-3"><path class="cls-1" d="M55.52,49.22s8-11.17,11.18-8S55.52,49.22,55.52,49.22Z"/></clipPath><clipPath id="clip-path-4"><path class="cls-1" d="M54.26,49.22s-8-11.17-11.17-8S54.26,49.22,54.26,49.22Z"/></clipPath><clipPath id="clip-path-5"><rect class="cls-1" x="37.04" y="49.75" width="35" height="4.66"/></clipPath></defs><rect class="cls-2" x="2.9" y="20.36" width="60.74" height="6.51"/><polyline class="cls-2" points="39.14 57.23 7.75 57.23 7.75 26.86 58.8 26.86 58.8 48.57"/><line class="cls-2" x1="33.28" y1="57.23" x2="33.28" y2="20.36"/><path class="cls-2" d="M33.59,19.91S47.5.52,53,6,33.59,19.91,33.59,19.91Z"/><path class="cls-2" d="M33.38,19.91S19.46.52,14,6,33.38,19.91,33.38,19.91Z"/><g class="cls-3"><rect class="cls-2" x="38.59" y="52.22" width="31.91" height="20.05"/></g><rect class="cls-2" x="39.84" y="54.76" width="29.42" height="16.24"/><g class="cls-4"><rect class="cls-5" x="53.3" y="48.47" width="2.48" height="23.8"/></g><line class="cls-2" x1="54.55" y1="71" x2="54.55" y2="49.75"/><g class="cls-6"><rect class="cls-1" x="54.28" y="39.35" width="14.12" height="11.15"/></g><path class="cls-2" d="M55.52,49.22c1.17-1.63,6.85-12.33,11.18-8C69.86,44.32,55.52,49.22,55.52,49.22Z"/><g class="cls-7"><rect class="cls-1" x="41.39" y="39.35" width="14.11" height="11.15"/></g><path class="cls-2" d="M54.26,49.22c-1.17-1.62-6.85-12.34-11.17-8C39.94,44.32,54.26,49.22,54.26,49.22Z"/><g class="cls-8"><rect class="cls-2" x="35.8" y="48.47" width="37.49" height="7.21"/></g><rect class="cls-2" x="37.04" y="49.75" width="35" height="4.66"/></svg>